<svg id="Layer_1" data-name="Layer 1" xmlns="http://www.w3.org/2000/svg" viewBox="0 0 240 65"><defs><style>.cls-1{fill:#fff;}.cls-2,.cls-3{fill:#f96711;}.cls-2{stroke:#f96711;stroke-miterlimit:10;stroke-width:0.5px;}.cls-4{fill:#f22241;}.cls-5{fill:#5e0950;}</style></defs><title>New_240x65</title><rect class="cls-1" width="240" height="65"/><path class="cls-2" d="M82.26,22.61A2.94,2.94,0,0,1,81,25.23q-2.88.52-3.45.66a5.08,5.08,0,0,0-3,1.7A158.21,158.21,0,0,0,73,49.92a18,18,0,0,0,.46,3.35,17.77,17.77,0,0,1,.46,3.34,1.75,1.75,0,0,1-2,2c-1,0-1.82-.67-2.58-2L68.54,51a8.54,8.54,0,0,0-4.75-3.47c-1.27-.39-3.18-1-5.72-2q-2.79-1.11-2.79-3.41a6.51,6.51,0,0,1,.47-2.23q5.25-6.15,6.86-8.18Q68,25,68,23.53l-.3-.85-.52-.26H61.83q-6.75,0-10.21,3.86c-.69,0-1-.72-.88-2.16Q53.64,19.6,64,19.6a18.32,18.32,0,0,1,5,.52,6.89,6.89,0,0,1,4.13,3.41,25.77,25.77,0,0,1,8.15-1.77C81.94,21.76,82.26,22.05,82.26,22.61ZM71.43,32.7c0-1.83-.38-2.75-1.14-2.75-.92,0-2.63,1.62-5.1,4.85s-3.72,5.41-3.72,6.54c0,.44,1.08,1.25,3.25,2.43q.82.39,4.08,2,1.08,0,2-5.83A56.79,56.79,0,0,0,71.43,32.7Z"/><path class="cls-2" d="M112,22q0,1.83-2.79,2.55c-.89.17-2.22.46-4,.85A8.39,8.39,0,0,0,101,24.18a2.8,2.8,0,0,0-2.06.73c-.49.48-1,1-1.5,1.5.28.57,1.29,1.36,3,2.36a3.68,3.68,0,0,1,2.07,3.34,10,10,0,0,1-3,6.75,31.66,31.66,0,0,1-5.83,4.71A21.62,21.62,0,0,0,90,46.45q.1,1.32,8.93,6.95,9.18,5.82,9.75,7l-.78.78a104.35,104.35,0,0,0-25.69-12A17.07,17.07,0,0,1,83.09,45q10.78-2.49,13.67-10.09a11.38,11.38,0,0,0,.82-2.68c0-1.31-.82-2-2.47-2s-3,1-4.49,3l-3.46,5.23H87a3.75,3.75,0,0,1-2.22-1.08,3,3,0,0,1-1.29-2.19q0-1.83,2.63-4.65a22.94,22.94,0,0,1,4-3.47l.37-.72v-.59a4.08,4.08,0,0,0-.67-2.13c-.45-.72-.93-1-1.45-.95l-7.07.72L79.17,25H78.5a5.72,5.72,0,0,1-.57-2.55C82,20.8,84.88,20,86.49,20c2,0,3.94,1.34,5.73,4,.62-.66,1.5-1.62,2.63-2.88,1.27-1.53,1.91-2.64,1.91-3.34q0-5-8.15-8.06a38.25,38.25,0,0,0-13.1-2.36,14.14,14.14,0,0,0-2,.13,9.78,9.78,0,0,1-.31-2.55c0-1.18.83-2,2.48-2.36l1.65,2.1a56,56,0,0,0,7.51,1.7,29.21,29.21,0,0,1,9.05,2.88,11,11,0,0,1,4.75,4.92A3.79,3.79,0,0,1,99.91,17a6.89,6.89,0,0,1-2.33,5.11Q100.4,20,102,20q0,.8,1.59,2.1a14.62,14.62,0,0,1,6.86-1.51A1.3,1.3,0,0,1,112,22Z"/><path class="cls-2" d="M152.91,22.38q0,1.11-5.28,3.48l-7-3c-1.31.13-2.3,1.33-3,3.61-.28,1.4-.73,3.51-1.35,6.31-.52,2.19-1.36,3.29-2.54,3.29a18,18,0,0,1-2-.79l-.62.92a8.87,8.87,0,0,0,1.86,4.6,9.44,9.44,0,0,0,5.64-2.17q.47-.33,5.07-4.2a4,4,0,0,1,2,1.05A2.83,2.83,0,0,1,147,37.69l0,.53a29.39,29.39,0,0,0-2,5.45q-.31,2.89-1,8.68-.78,6.1-3.31,6.11-3.17,0-12-5.13-9.32-5.44-9.32-8.47c0-.84.38-1.25,1.14-1.25a47.53,47.53,0,0,1,3.83,2.89q10.56,8.41,14.6,8.41c1.38,0,2.07-2,2.07-6,0-.56,0-1.42-.05-2.56V43.8c-.24-.65-.61-1-1.09-1a7.83,7.83,0,0,0-2.28,1.08A6.51,6.51,0,0,1,134.63,45a5.9,5.9,0,0,1-5.12-2.83,11.66,11.66,0,0,1-1.81-6.77A19,19,0,0,1,129,29.54q.72-2,2.18-5.78a9.44,9.44,0,0,0-5.08-1.65,18.15,18.15,0,0,0-5.54,1,14.24,14.24,0,0,0-5.17,2.7c-.59,0-.88-.47-.88-1.39q0-5.11,10.92-5.12,3,0,9.73,2.5,1.71-1.65,5.23-1.65A9.63,9.63,0,0,1,146,22.38a11.84,11.84,0,0,1,5.28-1.45C152.37,20.93,152.91,21.42,152.91,22.38Z"/><path class="cls-2" d="M164.81,21.85c0,.92-.6,1.73-1.81,2.43a13.69,13.69,0,0,0-2.59,1.84q-2.83,3.75-2.84,12.76c0,1.18.1,2.95.31,5.32s.31,4.14.31,5.32a17.9,17.9,0,0,1-.31,3.22c-.73.88-1.38,1.32-2,1.32a2.32,2.32,0,0,1-1-1.12V38.15c0-1.14.07-2.83.23-5.09s.23-4,.23-5.1a5.28,5.28,0,0,0-.52-2.1A13.84,13.84,0,0,0,152,24.15c-1.66-.83-2.61-1.33-2.85-1.51V21.19a4.19,4.19,0,0,1,1.14-1.44,18.06,18.06,0,0,1,5.07,2.56l.37.59.46-.72q.36-7.48,2.33-7.49c.52,0,.91.57,1.19,1.71l-.15,6.24A5.44,5.44,0,0,1,163.67,21C164.43,21,164.81,21.28,164.81,21.85Z"/><path class="cls-2" d="M180.38,34a8.18,8.18,0,0,1-.88-1.72,1.11,1.11,0,0,1,0,.17,29.5,29.5,0,0,0-1.31-2.76,2.91,2.91,0,0,0-2.37-1.63,5.38,5.38,0,0,0-2.39,1.13,2.84,2.84,0,0,0-.59-1.44,1.28,1.28,0,0,0-1.24,1.1l.24.87a12.46,12.46,0,0,1-1,1.82,4.12,4.12,0,0,0-.7,1.86,2,2,0,0,0,.41,1.11,1.14,1.14,0,0,0,.95.59,4,4,0,0,0,1.88-.79c.81-.53,1.21-1,1.21-1.37a3.44,3.44,0,0,0-.27-1.25,1.54,1.54,0,0,1,1.24-.83c.54,0,1.21.72,2,2.16A6.89,6.89,0,0,1,178.71,36c0,.42,0,.92-.05,1.46.22-.06.44-.14.67-.19l1.25-.25c0-.47,0-.93,0-1.34S180.45,34.58,180.38,34Z"/><path class="cls-2" d="M200.62,20.57c0,1-.93,1.88-2.69,2.76a8.56,8.56,0,0,1-3.62,1.18,6.33,6.33,0,0,1-1.32-.19,6.53,6.53,0,0,0-1.27-.2,2.61,2.61,0,0,0-1.27.53,2.6,2.6,0,0,1-1.27.52,8.62,8.62,0,0,1-2.9-.92q-2.07,4.18-2.95,6.24c-1.28,2.92-1.91,5-1.91,6.37l.2.6.47.33h1.76a9.5,9.5,0,0,0,2.74-.62,9.24,9.24,0,0,1,2.75-.63q1.91,0,3.26,4a19,19,0,0,1,1.09,6,6.79,6.79,0,0,1-2.36,5,6.72,6.72,0,0,1-4.53,2.27q-5.53,0-13-3.09a52.3,52.3,0,0,1-12.07-7l-.2-1.06.77-.65s1.9.94,5.59,2.82q10.83,5.59,16.42,5.59T190,44.76a5.63,5.63,0,0,0-2.28-4.54,10.22,10.22,0,0,1-6,2.11c-2.94,0-4.4-.83-4.4-2.49q0-4.26,5.28-16.12l-1.14-.85a33.17,33.17,0,0,1-5.13.49c-2.38.12-4.09.24-5.12.37q-1.86-.86-7-.86a8.53,8.53,0,0,0-2.69.59c-1.42.49-2.3.77-2.64.86l-.37-1.84a51.13,51.13,0,0,1,8.13-1.58h17.66q3.36,2,4.45,2,4.29,0,11.34-3.68Z"/><path class="cls-2" d="M211.39,20.11c0,.92-.6,1.73-1.81,2.43A13.31,13.31,0,0,0,207,24.38q-2.85,3.75-2.85,12.75c0,1.19.1,3,.31,5.33s.31,4.14.31,5.32a17,17,0,0,1-.31,3.22c-.72.88-1.38,1.32-2,1.32a2.32,2.32,0,0,1-1-1.12V36.41c0-1.14.08-2.84.24-5.09s.23-4,.23-5.1a5.45,5.45,0,0,0-.52-2.1,13.93,13.93,0,0,0-2.85-1.71c-1.65-.83-2.6-1.34-2.85-1.51V19.45A4.44,4.44,0,0,1,196.89,18,18,18,0,0,1,202,20.57l.36.59.47-.72c.24-5,1-7.49,2.32-7.49q.78,0,1.2,1.71l-.16,6.24a5.45,5.45,0,0,1,4.09-1.64C211,19.26,211.39,19.54,211.39,20.11Z"/><path class="cls-2" d="M238,20.37a6.3,6.3,0,0,1-1.3,1.91q-4.08.72-5.28,5.26a60.16,60.16,0,0,0-.72,9c0,.88-.12,2.5-.26,4.86-.1,1.76-.16,3.36-.16,4.8a18.32,18.32,0,0,0,.47,3.42,18.28,18.28,0,0,1,.47,3.35,1.76,1.76,0,0,1-2,2c-1,0-1.83-.68-2.59-2l-.78-5.53q-1.29-2.23-7.71-4.47-5.7-2-5.7-4.55a7.36,7.36,0,0,1,.57-2.11q2.28-2.62,6.84-7.77,5.43-6.18,5.43-7.44l-.26-.46h-3.1q-5.39-.26-4.82-.26a9.77,9.77,0,0,0-7.35,3.15l-.62.27c-.79,0-1.15-.73-1.08-2.17a12.85,12.85,0,0,1,6.41-3.62,32.7,32.7,0,0,1,7.15-.59,12.82,12.82,0,0,1,9.11,3.55,13.57,13.57,0,0,1,6.11-1.64C237.63,19.26,238,19.63,238,20.37ZM221.64,52A3.16,3.16,0,0,1,220,54.35a20.89,20.89,0,0,0-2.07-.52,2.71,2.71,0,0,1-1.6-1.58l.47-4.14a3.64,3.64,0,0,1,1.13-1H218a24.62,24.62,0,0,1,2.48,1.77A4.51,4.51,0,0,1,221.64,52Zm7.09-23.07q0-2.7-1.14-2.7c-1,0-2.69,1.6-5.17,4.8s-3.73,5.41-3.73,6.64c0,.44,1.1,1.25,3.31,2.43l4,2.1q1.08-.06,2-5.91A50.15,50.15,0,0,0,228.73,28.92Z"/><path d="M28.43,26.49h0Z"/><path class="cls-3" d="M46,17.73a14.24,14.24,0,0,0,.2-2.29,13.14,13.14,0,0,0-.16-2.1c-.75-5-4.15-8.85-8.35-9L35,4.33h-.63V4.27l-12.46.06-2.75,0c-4.11.24-7.44,3.87-8.25,8.71a14.37,14.37,0,0,0,0,4.4,12.7,12.7,0,0,0,1.73,4.78h0l6.55,0c-2.28-.22-4.06-2.14-4.68-4.76a9.27,9.27,0,0,1-.24-2.13,8.35,8.35,0,0,1,.34-2.27,5.79,5.79,0,0,1,4.58-4.4h3.38V8.7L35,8.64l2.75,0v0c2.29.19,4.1,2.13,4.73,4.76a8.64,8.64,0,0,1,.23,2.13,7.93,7.93,0,0,1-.33,2.27,5.8,5.8,0,0,1-4.59,4.4H34.38V22.1l-6.15,0v.09h.19A8.4,8.4,0,0,1,35,26.46h2.74C41.89,26.22,45.2,22.58,46,17.73Z"/><path d="M19.17,22.21h0Z"/><path class="cls-4" d="M19.13,40l-6.5,0H9.88v.05c-2.29-.2-4.1-2.14-4.72-4.78a9.1,9.1,0,0,1-.24-2.11A8.26,8.26,0,0,1,5.25,31a5.83,5.83,0,0,1,4.59-4.41v0l2.75,0h.64v.06l5.9,0v-.1a8.39,8.39,0,0,1-6.57-4.24H9.83C5.71,22.49,2.4,26.13,1.58,31a13.39,13.39,0,0,0-.19,2.3,14.42,14.42,0,0,0,.15,2.1c.75,5,4.16,8.85,8.36,9l2.65,0A8.55,8.55,0,0,1,19.13,40Z"/><path class="cls-4" d="M28.48,26.5c2.27.21,4.06,2.14,4.67,4.76a8.75,8.75,0,0,1,.24,2.13,8.05,8.05,0,0,1-.33,2.28,5.81,5.81,0,0,1-4.58,4.39h-.25v.07l6.1,0v.06h.72a12.38,12.38,0,0,0,1.68-4.51,14.26,14.26,0,0,0,.2-2.3,13.14,13.14,0,0,0-.16-2.1A12.65,12.65,0,0,0,35,26.46h0Z"/><path class="cls-5" d="M28.42,22.21h-.19v-.09l-6.31,0H19.17v0h0l-6.55,0h0a8.39,8.39,0,0,0,6.57,4.24v.1l6.55,0,2.55,0v0h.25l6.55,0h0A8.4,8.4,0,0,0,28.42,22.21Z"/><path class="cls-3" d="M29,44.48l6,0h2.75v0c2.29.2,4.1,2.13,4.73,4.77a8.64,8.64,0,0,1,.23,2.13,7.86,7.86,0,0,1-.33,2.26A5.8,5.8,0,0,1,37.76,58h0L35,58h-.63v-.06L21.92,58l-2.75,0v0c-2.29-.19-4.1-2.14-4.72-4.77a9.18,9.18,0,0,1-.24-2.12,8.37,8.37,0,0,1,.34-2.28,5.77,5.77,0,0,1,4.58-4.39v-.06l-5.85,0v-.06h-.73a12.58,12.58,0,0,0-1.68,4.5,14.3,14.3,0,0,0,0,4.39c.76,5,4.16,8.85,8.35,9l2.75,0h.64v.06L35,62.28l2.75,0C41.89,62,45.2,58.4,46,53.55a14.36,14.36,0,0,0,.2-2.3,13.14,13.14,0,0,0-.16-2.1c-.75-5-4.15-8.84-8.35-9l-2.66,0C33.57,42.52,31.56,44.23,29,44.48Z"/><path class="cls-5" d="M35,40.15h-.63v-.06l-6.1,0v-.07H25.09V40l-6,0a8.55,8.55,0,0,0-6.58,4.34h.73v.06l5.85,0v.06h3.38v.06l5.72,0H29c2.56-.25,4.57-2,6-4.33Z"/></svg>