<svg id="Layer_1" data-name="Layer 1" xmlns="http://www.w3.org/2000/svg" viewBox="0 0 240 50"><defs><style>.cls-1{fill:#fff;}.cls-2,.cls-3{fill:#f96711;}.cls-2{stroke:#f96711;stroke-miterlimit:10;stroke-width:0.5px;}.cls-4{fill:#60c0b2;}.cls-5{fill:#f22241;}.cls-6{fill:#5e0950;}.cls-7{fill:#288431;}</style></defs><title>New_240x50</title><rect class="cls-1" y="-0.09" width="240" height="50"/><path class="cls-2" d="M82.26,17.11A2.22,2.22,0,0,1,81,19.19c-1.92.27-3.07.45-3.45.51a5.59,5.59,0,0,0-3,1.35A100,100,0,0,0,73,38.75a11.38,11.38,0,0,0,.46,2.65,11.46,11.46,0,0,1,.46,2.65q0,1.56-2,1.56A3.21,3.21,0,0,1,69.31,44l-.77-4.41q-1.29-1.77-4.75-2.76-1.9-.46-5.72-1.55-2.79-.89-2.79-2.7a4.26,4.26,0,0,1,.47-1.77q5.25-4.87,6.86-6.48C66.18,20.76,68,18.6,68,17.84l-.3-.68L67.2,17H61.83Q55.08,17,51.62,20c-.69,0-1-.57-.88-1.72q2.9-3.57,13.21-3.58a22.19,22.19,0,0,1,5,.42,6.74,6.74,0,0,1,4.13,2.7,31.45,31.45,0,0,1,8.15-1.4C81.94,16.44,82.26,16.66,82.26,17.11Zm-10.83,8c0-1.45-.38-2.18-1.14-2.18-.92,0-2.63,1.28-5.1,3.84s-3.72,4.3-3.72,5.19c0,.35,1.08,1,3.25,1.93.55.2,1.91.74,4.08,1.6.72,0,1.37-1.53,2-4.61A36.13,36.13,0,0,0,71.43,25.1Z"/><path class="cls-2" d="M112,16.64c0,1-.93,1.65-2.79,2-.89.14-2.22.36-4,.67a10.19,10.19,0,0,0-4.18-1,3.26,3.26,0,0,0-2.06.58l-1.5,1.19a8.28,8.28,0,0,0,3,1.87,2.91,2.91,0,0,1,2.07,2.65q0,2.74-3,5.34a30.86,30.86,0,0,1-5.83,3.74A21.41,21.41,0,0,0,90,36q.1,1.05,8.93,5.51c6.12,3.07,9.37,4.93,9.75,5.55l-.78.62a119.13,119.13,0,0,0-25.69-9.55,11.18,11.18,0,0,1,.88-3.32q10.78-2,13.67-8a7.75,7.75,0,0,0,.82-2.13c0-1-.82-1.56-2.47-1.56a6.29,6.29,0,0,0-4.49,2.39l-3.46,4.15H87a4.17,4.17,0,0,1-2.22-.86c-.86-.57-1.29-1.14-1.29-1.73q0-1.45,2.63-3.69a22.62,22.62,0,0,1,4-2.75l.37-.57V19.6a2.83,2.83,0,0,0-.67-1.69,1.58,1.58,0,0,0-1.45-.75l-7.07.57L79.17,19H78.5a3.83,3.83,0,0,1-.57-2C82,15.67,84.88,15,86.49,15q3,0,5.73,3.17c.62-.52,1.5-1.28,2.63-2.28,1.27-1.21,1.91-2.1,1.91-2.65q0-3.94-8.15-6.39A47.44,47.44,0,0,0,75.51,5a16.45,16.45,0,0,0-2,.1,6.26,6.26,0,0,1-.31-2c0-.94.83-1.56,2.48-1.87l1.65,1.66a69,69,0,0,0,7.51,1.35,35.19,35.19,0,0,1,9.05,2.28,10,10,0,0,1,4.75,3.89,2.82,2.82,0,0,1,1.29,2.24,5,5,0,0,1-2.33,4A9.83,9.83,0,0,1,102,15c0,.42.56,1,1.59,1.66a17.92,17.92,0,0,1,6.86-1.19C111.48,15.5,112,15.88,112,16.64Z"/><path class="cls-2" d="M152.91,16.92q0,.88-5.28,2.76l-7-2.39c-1.31.1-2.3,1.06-3,2.86q-.42,1.67-1.35,5c-.52,1.74-1.36,2.61-2.54,2.61a19.12,19.12,0,0,1-2-.63l-.62.73A6.33,6.33,0,0,0,133,31.51a11.09,11.09,0,0,0,5.64-1.72c.31-.17,2-1.29,5.07-3.33a4.42,4.42,0,0,1,2,.83A2.16,2.16,0,0,1,147,29.06l0,.42a20.23,20.23,0,0,0-2,4.32q-.31,2.3-1,6.87-.78,4.84-3.31,4.85-3.17,0-12-4.07-9.32-4.32-9.32-6.71,0-1,1.14-1,.15,0,3.83,2.29,10.56,6.66,14.6,6.67,2.07,0,2.07-4.8c0-.45,0-1.12-.05-2v-2a1.17,1.17,0,0,0-1.09-.78,9.06,9.06,0,0,0-2.28.86,7.63,7.63,0,0,1-2.85.86,6.41,6.41,0,0,1-5.12-2.24,7.87,7.87,0,0,1-1.81-5.36A12.4,12.4,0,0,1,129,22.6q.72-1.56,2.18-4.58a11.26,11.26,0,0,0-5.08-1.31,22.17,22.17,0,0,0-5.54.79,15.71,15.71,0,0,0-5.17,2.13c-.59,0-.88-.36-.88-1.09q0-4.06,10.92-4.07,3,0,9.73,2a8.66,8.66,0,0,1,5.23-1.3A11.19,11.19,0,0,1,146,16.92a14.3,14.3,0,0,1,5.28-1.14C152.37,15.78,152.91,16.16,152.91,16.92Z"/><path class="cls-2" d="M164.81,16.51c0,.73-.6,1.37-1.81,1.92a13.79,13.79,0,0,0-2.59,1.46q-2.83,3-2.84,10.11a41.46,41.46,0,0,0,.31,4.22c.2,1.87.31,3.28.31,4.22a11.39,11.39,0,0,1-.31,2.55,3.07,3.07,0,0,1-2,1,2,2,0,0,1-1-.89V29.42c0-.9.07-2.24.23-4s.23-3.14.23-4a3.51,3.51,0,0,0-.52-1.67A14.52,14.52,0,0,0,152,18.33q-2.49-1-2.85-1.2V16a3.65,3.65,0,0,1,1.14-1.14,20.3,20.3,0,0,1,5.07,2l.37.47.46-.57q.36-5.94,2.33-5.94c.52,0,.91.45,1.19,1.35l-.15,4.95a6.26,6.26,0,0,1,4.08-1.3C164.43,15.83,164.81,16.05,164.81,16.51Z"/><path class="cls-2" d="M180.38,26.17a6.06,6.06,0,0,1-.88-1.37.68.68,0,0,1,0,.14,21.12,21.12,0,0,0-1.31-2.19,3,3,0,0,0-2.37-1.3,6.13,6.13,0,0,0-2.39.91,2,2,0,0,0-.59-1.14,1.2,1.2,0,0,0-1.24.87l.24.69a9.67,9.67,0,0,1-1,1.44,2.86,2.86,0,0,0-.7,1.47,1.38,1.38,0,0,0,.41.88,1.24,1.24,0,0,0,.95.47,4.61,4.61,0,0,0,1.88-.63c.81-.42,1.21-.78,1.21-1.08a2.24,2.24,0,0,0-.27-1,1.6,1.6,0,0,1,1.24-.66c.54,0,1.21.57,2,1.71a4.8,4.8,0,0,1,1.12,2.34c0,.33,0,.72-.05,1.15l.67-.15,1.25-.2a9,9,0,0,0,0-1.05C180.52,27,180.45,26.6,180.38,26.17Z"/><path class="cls-2" d="M200.62,15.49c0,.76-.93,1.49-2.69,2.19a10.39,10.39,0,0,1-3.62.94,8.48,8.48,0,0,1-1.32-.16,8.57,8.57,0,0,0-1.27-.16,3,3,0,0,0-1.27.42,3,3,0,0,1-1.27.42,10.79,10.79,0,0,1-2.9-.73c-1.38,2.21-2.36,3.85-2.95,4.94-1.28,2.32-1.91,4-1.91,5l.2.48.47.26h1.76a11.52,11.52,0,0,0,2.74-.5,11.37,11.37,0,0,1,2.75-.49q1.91,0,3.26,3.12a12.4,12.4,0,0,1,1.09,4.8A5,5,0,0,1,191.33,40a7.55,7.55,0,0,1-4.53,1.8,42.61,42.61,0,0,1-13-2.45,57.14,57.14,0,0,1-12.07-5.53l-.2-.83.77-.52s1.9.75,5.59,2.24q10.83,4.42,16.42,4.43T190,34.66a4.25,4.25,0,0,0-2.28-3.6,11.91,11.91,0,0,1-6,1.67c-2.94,0-4.4-.66-4.4-2q0-3.37,5.28-12.77l-1.14-.68a39.07,39.07,0,0,1-5.13.39c-2.38.1-4.09.19-5.12.29a23.8,23.8,0,0,0-7-.68,10.46,10.46,0,0,0-2.69.47c-1.42.39-2.3.61-2.64.68L158.53,17a63.53,63.53,0,0,1,8.13-1.25h17.66a13.91,13.91,0,0,0,4.45,1.62q4.29,0,11.34-2.92Z"/><path class="cls-2" d="M211.39,15.13c0,.73-.6,1.37-1.81,1.92A13.41,13.41,0,0,0,207,18.51q-2.85,3-2.85,10.11a41.27,41.27,0,0,0,.31,4.22,41.09,41.09,0,0,1,.31,4.22,10.84,10.84,0,0,1-.31,2.55,3.05,3.05,0,0,1-2,1,2,2,0,0,1-1-.89V28c0-.9.08-2.24.24-4s.23-3.14.23-4a3.62,3.62,0,0,0-.52-1.67A15.24,15.24,0,0,0,198.6,17q-2.47-1-2.85-1.2V14.6a3.87,3.87,0,0,1,1.14-1.14,20.21,20.21,0,0,1,5.08,2l.36.47.47-.57q.36-5.94,2.32-5.94.78,0,1.2,1.35l-.16,4.95a6.26,6.26,0,0,1,4.09-1.3C211,14.45,211.39,14.68,211.39,15.13Z"/><path class="cls-2" d="M238,15.33a5,5,0,0,1-1.3,1.51A6,6,0,0,0,231.42,21a38.21,38.21,0,0,0-.72,7.14c0,.69-.12,2-.26,3.85-.1,1.39-.16,2.66-.16,3.8a11.65,11.65,0,0,0,.47,2.71,11.67,11.67,0,0,1,.47,2.66c0,1-.68,1.56-2,1.56a3.2,3.2,0,0,1-2.59-1.62l-.78-4.38q-1.29-1.77-7.71-3.55-5.7-1.56-5.7-3.6a4.88,4.88,0,0,1,.57-1.67q2.28-2.09,6.84-6.16,5.43-4.91,5.43-5.89l-.26-.37h-3.1q-5.39-.21-4.82-.21a11.15,11.15,0,0,0-7.35,2.5l-.62.21c-.79,0-1.15-.57-1.08-1.72a13.93,13.93,0,0,1,6.41-2.86,40.9,40.9,0,0,1,7.15-.47,14.87,14.87,0,0,1,9.11,2.81,16.47,16.47,0,0,1,6.11-1.3C237.63,14.45,238,14.75,238,15.33ZM221.64,40.39c0,.62-.54,1.25-1.61,1.87-.72-.17-1.41-.31-2.07-.41a2.49,2.49,0,0,1-1.6-1.25l.47-3.28a3.51,3.51,0,0,1,1.13-.84H218a25.86,25.86,0,0,1,2.48,1.41A3.16,3.16,0,0,1,221.64,40.39Zm7.09-18.28c0-1.43-.38-2.14-1.14-2.14-1,0-2.69,1.27-5.17,3.8s-3.73,4.29-3.73,5.26c0,.35,1.1,1,3.31,1.93l4,1.67q1.08-.06,2-4.69A31.8,31.8,0,0,0,228.73,22.11Z"/><path d="M28.43,20.19Z"/><path class="cls-3" d="M46,13.24a9.06,9.06,0,0,0,.2-1.82,8.27,8.27,0,0,0-.16-1.66A8.82,8.82,0,0,0,37.71,2.6L35,2.62h-.63V2.57l-12.46.05-2.75,0a8.75,8.75,0,0,0-8.25,6.9,9.07,9.07,0,0,0,0,3.49,8.84,8.84,0,0,0,1.73,3.78h0l6.55,0A5.25,5.25,0,0,1,14.45,13a5.9,5.9,0,0,1-.24-1.69,5.33,5.33,0,0,1,.34-1.8A5.42,5.42,0,0,1,19.13,6h3.38v0L35,6l2.75,0V6a5.27,5.27,0,0,1,4.73,3.78,5.48,5.48,0,0,1,.23,1.69,5.13,5.13,0,0,1-.33,1.8,5.45,5.45,0,0,1-4.59,3.49H34.38V16.7l-6.15,0v.07h.19A8.8,8.8,0,0,1,35,20.16h2.74A8.77,8.77,0,0,0,46,13.24Z"/><path d="M19.17,16.79h0Z"/><rect class="cls-4" x="28.23" y="20.19" width="0.2" height="0.02" transform="translate(-0.24 0.35) rotate(-0.7)"/><path class="cls-5" d="M19.13,30.92l-6.5,0H9.88v0a5.24,5.24,0,0,1-4.72-3.78,5.88,5.88,0,0,1-.24-1.68,5.34,5.34,0,0,1,.33-1.81,5.46,5.46,0,0,1,4.59-3.49v0l2.75,0h.64v0l5.9,0v-.08a8.78,8.78,0,0,1-6.57-3.36H9.83a8.78,8.78,0,0,0-8.25,6.91,8.55,8.55,0,0,0-.19,1.83,9.07,9.07,0,0,0,.15,1.66A8.83,8.83,0,0,0,9.9,34.38l2.65,0A8.9,8.9,0,0,1,19.13,30.92Z"/><path class="cls-5" d="M28.48,20.19A5.23,5.23,0,0,1,33.15,24a5.57,5.57,0,0,1,.24,1.69,5.09,5.09,0,0,1-.33,1.8,5.4,5.4,0,0,1-4.58,3.48h-.25V31l6.1,0v0h.72a8.6,8.6,0,0,0,1.68-3.57,9,9,0,0,0,.2-1.82A8.27,8.27,0,0,0,36.77,24,8.82,8.82,0,0,0,35,20.16h0Z"/><path class="cls-6" d="M28.42,16.79h-.19v-.07l-6.31,0H19.17v0h0l-6.55,0h0a8.78,8.78,0,0,0,6.57,3.36v.08l6.55,0,2.55,0v0h.25l6.55,0h0A8.8,8.8,0,0,0,28.42,16.79Z"/><path class="cls-3" d="M29,34.44l6,0h2.75v0a5.25,5.25,0,0,1,4.73,3.78,5.46,5.46,0,0,1,.23,1.68,5.09,5.09,0,0,1-.33,1.8,5.42,5.42,0,0,1-4.59,3.48H34.38v-.05l-12.46.05H19.17v0a5.23,5.23,0,0,1-4.72-3.78,5.73,5.73,0,0,1-.24-1.68,5.38,5.38,0,0,1,4.92-5.28v0l-5.85,0v0h-.73a8.79,8.79,0,0,0-1.68,3.57,9.06,9.06,0,0,0-.19,1.82,9.15,9.15,0,0,0,.15,1.66,8.82,8.82,0,0,0,8.35,7.15h3.39v0l12.46,0,2.75,0A8.76,8.76,0,0,0,46,41.63a9.14,9.14,0,0,0,.2-1.82,8.37,8.37,0,0,0-.16-1.67A8.79,8.79,0,0,0,37.71,31H35.05A8.47,8.47,0,0,1,29,34.44Z"/><path class="cls-7" d="M28.74,34.47a2.3,2.3,0,0,1,.26,0h-.77l.12,0Z"/><path class="cls-6" d="M34.33,31v0l-6.1,0v-.05H25.09v0l-6,0V31h0a8.81,8.81,0,0,0-6.57,3.34h.73v0l5.85,0v0h3.38v0l5.72,0v-.09h.26A8.82,8.82,0,0,0,35.05,31h-.72Z"/><path class="cls-7" d="M19.12,31h0v-.1a8.9,8.9,0,0,0-6.58,3.44A8.81,8.81,0,0,1,19.12,31Z"/><path class="cls-7" d="M28.49,34.35h-.26v.09H29a8.47,8.47,0,0,0,6-3.44A8.82,8.82,0,0,1,28.49,34.35Z"/></svg>