<svg xmlns="http://www.w3.org/2000/svg" viewBox="0 0 512 512"><defs><style>.cls-1{isolation:isolate;}.cls-2{fill:#fff;}.cls-3{fill:#ccdee3;}.cls-3,.cls-4{opacity:0.24;}.cls-4{fill:#b3c3c7;}.cls-10,.cls-12,.cls-13,.cls-16,.cls-19,.cls-20,.cls-22,.cls-23,.cls-24,.cls-4,.cls-6,.cls-8{mix-blend-mode:multiply;}.cls-20,.cls-5,.cls-6{fill:#bde4f4;}.cls-13,.cls-19,.cls-23,.cls-6,.cls-8{opacity:0.23;}.cls-23,.cls-24,.cls-7{fill:#404969;}.cls-10,.cls-9{fill:#ffc7ab;}.cls-10,.cls-12{opacity:0.21;}.cls-11,.cls-13{fill:#1c333d;}.cls-14{fill:#107cc6;}.cls-15{fill:#7b3c3c;}.cls-16{opacity:0.31;}.cls-17{fill:#173d7a;}.cls-18,.cls-19{fill:coral;}.cls-20{opacity:0.41;}.cls-21{fill:#a4c6d4;}.cls-22{opacity:0.2;}.cls-24{opacity:0.29;}</style></defs><title>FAQ_512x512</title><g class="cls-1"><g id="Layer_1" data-name="Layer 1"><rect class="cls-2" width="512" height="512"/><path class="cls-3" d="M60.44,365.85s4.62-16.94,32.91-13.5,79.34,1.47,121.35-2,71,6.8,102.84,7.42,112.14-7.34,131.15,0,32.78,25.33-1.88,41.78-78.87-9.26-112.81,0-89,5.14-127.53.51S29.07,426.29,60.44,365.85Z"/><ellipse class="cls-4" cx="141.61" cy="382.15" rx="37.79" ry="6.52"/><path class="cls-5" d="M161,365.4v3s10,6.84,9.29,11.12-8.44,3.63-12.29,0a18.21,18.21,0,0,1-4.91-7.91l1.07-6.2Z"/><path class="cls-6" d="M158,377.75a18.65,18.65,0,0,1-4.72-7.28l-.19,1.13a18.21,18.21,0,0,0,4.91,7.91c3.85,3.63,11.55,4.27,12.29,0a3.42,3.42,0,0,0-.1-1.41C169.13,382,161.78,381.28,158,377.75Z"/><path class="cls-5" d="M127,367.47l-.8,2.55s-10,6.84-9.29,11.12,8.43,3.63,12.28,0a18.18,18.18,0,0,0,4.92-7.91L133,367Z"/><path class="cls-6" d="M129,379.38a18.65,18.65,0,0,0,4.72-7.28l.19,1.13a18.21,18.21,0,0,1-4.91,7.91c-3.85,3.63-11.55,4.27-12.29,0a3.42,3.42,0,0,1,.1-1.41C118,383.6,125.3,382.91,129,379.38Z"/><path class="cls-7" d="M119.48,266.33s-.17,83.27,7.27,101.74h6.42s7-63.05,7.64-77.31c0,0,9.95,72.69,13.11,76.11h7.17s2.81-78.93,0-101.82Z"/><g class="cls-8"><path class="cls-7" d="M139.35,280c-.6,14.26-10.56,88-10.56,88h4.38s6.4-60.05,7.64-77.31C140.81,283.67,139.35,280,139.35,280Z"/><path class="cls-7" d="M161.09,265.05l-4.37.13c2.79,22.95,0,101.69,0,101.69h4.38S163.9,287.94,161.09,265.05Z"/></g><path class="cls-9" d="M117.63,204.21,122,198.8s1.24-5.43,2.84-7.6c0,0,2.54,7,4,8.48a17.47,17.47,0,0,0-5.59,7.11Z"/><path class="cls-10" d="M124.82,191.2a9.41,9.41,0,0,0-1,1.91c.87,2.17,2.13,5,3,5.93a17.61,17.61,0,0,0-5.48,6.87l1.9.88a17.54,17.54,0,0,1,5.59-7.12C127.36,198.22,124.82,191.2,124.82,191.2Z"/><path class="cls-11" d="M102.1,198.57,85.3,178.84l22.33-22.33a19,19,0,0,0,2.53,4.46,37.38,37.38,0,0,0,4.23,5.24,18.55,18.55,0,0,0,10.38,5.52,10.63,10.63,0,0,0,9.69-3A12.36,12.36,0,0,0,138.3,160q.1-5-4.4-9.47t-9.41-4.12a19.34,19.34,0,0,0-9.65,3.33l-8.23-19.51a33.16,33.16,0,0,1,16.18-7.39,39.22,39.22,0,0,1,18.44,1.41,39.78,39.78,0,0,1,16.24,9.93,36,36,0,0,1,10.15,18.49,40.58,40.58,0,0,1-1.13,20.74,43.16,43.16,0,0,1-10.71,17.71q-8.13,8.12-17.82,9.7a35.77,35.77,0,0,1-17.87-1.3q-8.18-2.88-12.24-7.16Z"/><g class="cls-12"><path class="cls-11" d="M124.49,146.42q5-.28,9.41,4.12a15.28,15.28,0,0,1,3.77,5.66,12.38,12.38,0,0,0,.21-1.94q.1-5-4.4-9.48t-9.41-4.11a19.32,19.32,0,0,0-9.65,3.32l-6.3-14.93c-.51.38-1,.77-1.51,1.18l8.23,19.51A19.34,19.34,0,0,1,124.49,146.42Z"/><path class="cls-11" d="M166.49,173.42A40.43,40.43,0,0,0,168,155.11a41,41,0,0,1-2,12.56,43.23,43.23,0,0,1-10.71,17.71q-8.12,8.12-17.82,9.69a35.77,35.77,0,0,1-17.87-1.29q-8.17-2.88-12.24-7.16l-5.75,6.2-14-16.4-2.42,2.42,16.8,19.73,5.75-6.2q4.07,4.29,12.24,7.16a35.77,35.77,0,0,0,17.87,1.3q9.69-1.58,17.82-9.7A43.16,43.16,0,0,0,166.49,173.42Z"/></g><path class="cls-11" d="M59.76,205.73a17.4,17.4,0,0,1,5.24-12,16.09,16.09,0,0,1,12.24-4.9,16.89,16.89,0,0,1,12,5,15,15,0,0,1,4.56,10.88q.06,6.38-5.24,11.67a18.87,18.87,0,0,1-12.23,5.81,14.63,14.63,0,0,1-11.9-4.46A15.41,15.41,0,0,1,59.76,205.73Z"/><path class="cls-13" d="M93.81,204.72a14.38,14.38,0,0,0-.21-2.4,18.12,18.12,0,0,1-4.36,6.62A18.88,18.88,0,0,1,77,214.74a14.57,14.57,0,0,1-11.89-4.45A15.28,15.28,0,0,1,60.55,201a18.78,18.78,0,0,0-.79,4.69,15.41,15.41,0,0,0,4.68,12,14.63,14.63,0,0,0,11.9,4.46,18.87,18.87,0,0,0,12.23-5.81Q93.87,211.1,93.81,204.72Z"/><path class="cls-9" d="M171.63,215s-2.38-7.63-7.46-9.66-8.65.3-7.63.8,4.7.26,5.59.51c0,0-3.18,2.29-.89,5a55.78,55.78,0,0,0,7.38,6.36Z"/><path class="cls-10" d="M164.17,205.35c-3.23-1.29-5.84-.82-7.06-.18a9.62,9.62,0,0,1,6,.57c5.09,2,7.46,9.66,7.46,9.66l-2.35,2.32.36.26,3-3S169.25,207.38,164.17,205.35Z"/><path class="cls-14" d="M131.28,213.83s-4.41-.45-11.19,2c0,0,3.9-3.93,3.9-9L116.1,203s-22.63,22.63-15.26,32.29,17,2,17,2l-.52,34.58h47.06s-2.08-26.1-2.8-36.36c0,0,17,6.1,20.86-.26s-3.82-18.56-10.43-22.63c0,0-2.8,3.81-6.61,4.83,0,0,2.54,3.82,2.54,5.09,0,0-6.61-5.6-10.17-6.61S131.28,213.83,131.28,213.83Z"/><path class="cls-9" d="M133.37,204s.85,6.19-1,10,1.87,7.89,7.8,7.61,6.7-7.23,6.7-7.23a3.38,3.38,0,0,1-1.61-3.05s10.51,2.37,11.36-4.75,0-7.63,0-7.63h3.22s-3-10.7-4.07-15.09c-3.05-12.55-18.26-17.39-27.13-4.92C117.63,194.33,133.37,204,133.37,204Z"/><path class="cls-10" d="M156.6,198.87h3.22s-3-10.7-4.07-15.09a16.11,16.11,0,0,0-7.86-10.5,16.41,16.41,0,0,1,5.36,8.81c1.07,4.38,4.07,15.09,4.07,15.09H154.1s.85.5,0,7.62-11.36,4.75-11.36,4.75a3.36,3.36,0,0,0,1.61,3s-.76,7-6.7,7.24a10.19,10.19,0,0,1-4.45-.74,8.79,8.79,0,0,0,7,2.43c5.93-.28,6.7-7.23,6.7-7.23a3.38,3.38,0,0,1-1.61-3.05s10.51,2.37,11.36-4.75S156.6,198.87,156.6,198.87Z"/><path class="cls-15" d="M131.23,202.34s6.72-3.05,5.37-9.66,3.65-3.18,4.83-2.84c0,0-.56-4.91,2.66-7.12s11.36-.72,12.27-2.75-7.73-14.55-23.16-8.38S122.47,199.11,131.23,202.34Z"/><path class="cls-7" d="M156.43,176.56v0a14.56,14.56,0,0,0-16.68-10L132.83,168A14.55,14.55,0,0,0,121.32,185l.22,1.11L157,179.21s14.87-2.85,16.53-3.61S172.75,172.68,156.43,176.56Z"/><g class="cls-16"><path class="cls-7" d="M170.48,174.32c-3.4,1-15.81,3.37-15.81,3.37l-33.46,6.5c0,.27.06.54.11.82l.22,1.11L157,179.21s14.87-2.85,16.53-3.61C174.5,175.16,174.09,174.27,170.48,174.32Z"/></g><path class="cls-17" d="M172.05,212.64s-2.8,3.81-6.61,4.83c0,0,2.54,3.82,2.54,5.09,0,0-6.61-5.6-10.17-6.61a12.21,12.21,0,0,0-1.37-.27c-.41,9.65-3,34.27-38.41,47.14l-.67,9.07h47.06s-2.08-24.83-2.8-36.36c0,0,17,6.1,20.86-.26S178.66,216.71,172.05,212.64Z"/><path class="cls-4" d="M439.54,382.15c0,3.59-16.92,6.51-37.79,6.51s-37.8-2.92-37.8-6.51,16.92-6.52,37.8-6.52S439.54,378.55,439.54,382.15Z"/><path class="cls-18" d="M425.94,365.23v2.94s9.86,6.73,9.14,10.93-8.3,3.57-12.08,0a17.82,17.82,0,0,1-4.83-7.78l1.05-6.09Z"/><path class="cls-19" d="M423,377.38a18.27,18.27,0,0,1-4.64-7.16l-.19,1.1A17.82,17.82,0,0,0,423,379.1c3.78,3.57,11.35,4.2,12.08,0a3.28,3.28,0,0,0-.1-1.38C433.89,381.53,426.67,380.84,423,377.38Z"/><path class="cls-18" d="M392.44,367.26l-.79,2.51s-9.86,6.73-9.14,10.93,8.3,3.58,12.08,0a17.82,17.82,0,0,0,4.83-7.77l-1.05-6.1Z"/><path class="cls-19" d="M394.49,379a18.27,18.27,0,0,0,4.64-7.16l.19,1.11a17.82,17.82,0,0,1-4.83,7.77c-3.79,3.58-11.35,4.21-12.08,0a3.14,3.14,0,0,1,.1-1.38C383.59,383.13,390.81,382.45,394.49,379Z"/><path class="cls-9" d="M381.33,227.3s-.54,8.35-8.82,8.91c-6.62.45-5.66-21.1-5-29.76a20.24,20.24,0,0,1,2.76-9,13.13,13.13,0,0,1,1-1.42c2.07-2.63,5.4-.69,5.49,1s-1.86,2.27-1.86,2.27,3.67-6.58,5.55-5.26-4.51,7.71-4.51,7.71,3.22-3.32,3.43-.87-2.91,2.75-5.15,6,0,19.19,0,19.19l2.27-4.89Z"/><g class="cls-12"><path class="cls-9" d="M379.63,225.16c-.22,1.6-1.53,8.06-8.78,8.55a2.72,2.72,0,0,1-2-.66c.83,2,2,3.27,3.63,3.16,8.28-.56,8.82-8.91,8.82-8.91Z"/></g><path class="cls-7" d="M385.09,267.84s-.16,81.86,7.14,100h6.32s6.91-62,7.51-76c0,0,9.78,71.47,12.88,74.83H426s2.76-77.59,0-100.1Z"/><g class="cls-8"><path class="cls-7" d="M404.63,281.32c-.59,14-10.39,86.54-10.39,86.54h4.31s6.29-59,7.51-76C406.06,284.89,404.63,281.32,404.63,281.32Z"/><path class="cls-7" d="M426,266.58l-4.3.13c2.74,22.57,0,100,0,100H426S428.76,289.09,426,266.58Z"/></g><path class="cls-5" d="M382.37,228.78l-8.18-7.06s5.08-18.34,18.06-15.8l19.19-.24s12.42-2.3,16.65,9.55-3.95,18.91-3.95,18.91l3.67,36.12-43.18-2S383.78,235.83,382.37,228.78Z"/><path class="cls-5" d="M382.37,228.78l-8.18-7.06s5.08-18.34,18.06-15.8l19.19-.24s12.42-2.3,16.65,9.55-3.95,18.91-3.95,18.91l3.67,36.12-43.18-2S383.78,235.83,382.37,228.78Z"/><path class="cls-20" d="M384.51,264.15c.08,2.55.12,4.14.12,4.14l43.18,2-3.05-30C420.45,246.38,409.34,258.12,384.51,264.15Z"/><path class="cls-5" d="M385.76,217.77s-.85,7.06-3.39,11"/><path class="cls-21" d="M385.76,217.77a13.85,13.85,0,0,1-.06,2.95,19.05,19.05,0,0,1-.57,2.88,16.06,16.06,0,0,1-1.05,2.75,9.37,9.37,0,0,1-1.71,2.43c.64-1.87,1.16-3.65,1.68-5.49S385.06,219.62,385.76,217.77Z"/><path class="cls-9" d="M409.82,196.18s-.79,5.79.95,9.32-1.74,7.39-7.29,7.13-6.27-6.77-6.27-6.77a3.17,3.17,0,0,0,1.51-2.86s-9.84,2.22-10.64-4.44,0-7.14,0-7.14h-3s2.81-10,3.81-14.12c2.85-11.74,16.34-15.71,25.38-4.6C422.7,183.05,409.82,196.18,409.82,196.18Z"/><g class="cls-12"><path class="cls-9" d="M409.82,196.18s12.88-13.13,4.44-23.48c-4.16-5.12-9.26-7-13.84-6.47,3.69.45,7.51,2.48,10.75,6.47,8.44,10.35-4.44,23.48-4.44,23.48s-.8,5.79.95,9.32c1.51,3.05-.9,6.34-5.16,7a7,7,0,0,0,1,.12c5.55.26,9-3.6,7.29-7.13S409.82,196.18,409.82,196.18Z"/></g><path class="cls-11" d="M374.23,310l-23,11.06-15.67-26.8a19,19,0,0,0,4.87-1.3,36.22,36.22,0,0,0,6-2.72,18.26,18.26,0,0,0,7.84-8.48,10.44,10.44,0,0,0-.48-10,12.07,12.07,0,0,0-7.3-5.81q-4.69-1.35-10.1,1.82c-3.52,2.05-5.6,4.7-6.26,7.92a19,19,0,0,0,.76,10l-20.6,3a32.47,32.47,0,0,1-3-17.23,38.42,38.42,0,0,1,5.93-17.18,38.9,38.9,0,0,1,13.49-13,35.36,35.36,0,0,1,20.11-5,39.87,39.87,0,0,1,19.45,6.25,42.34,42.34,0,0,1,14.16,14.6q5.7,9.74,4.78,19.35a35.07,35.07,0,0,1-5.69,16.68q-4.77,7.05-9.85,9.85Z"/><g class="cls-12"><path class="cls-11" d="M330.22,275.72c.66-3.22,2.74-5.87,6.26-7.92a15.07,15.07,0,0,1,6.33-2.18,12.87,12.87,0,0,0-1.8-.68q-4.69-1.33-10.1,1.82t-6.26,7.93a19,19,0,0,0,.75,10L309.63,287q.35.87.75,1.74l20.6-3A19,19,0,0,1,330.22,275.72Z"/><path class="cls-11" d="M366.37,242.52a39.83,39.83,0,0,0-17-6,40.12,40.12,0,0,1,11.46,5A42.51,42.51,0,0,1,375,256.08q5.7,9.75,4.78,19.36a35.17,35.17,0,0,1-5.69,16.67q-4.77,7.06-9.86,9.85l4.47,7-19.08,9.19,1.7,2.91,23-11.06-4.46-7q5.09-2.79,9.85-9.85a35.07,35.07,0,0,0,5.69-16.68q.93-9.6-4.78-19.35A42.34,42.34,0,0,0,366.37,242.52Z"/></g><path class="cls-11" d="M370.48,352.06a17.1,17.1,0,0,1-10.11-8,15.88,15.88,0,0,1-1.62-12.86,16.65,16.65,0,0,1,7.77-10.17A14.84,14.84,0,0,1,378,319.42q6.08,1.54,9.79,7.9a18.52,18.52,0,0,1,2.47,13.08,14.35,14.35,0,0,1-7.2,10.2A15.14,15.14,0,0,1,370.48,352.06Z"/><path class="cls-13" d="M378,319.42a17.9,17.9,0,0,0-2.34-.4,17.83,17.83,0,0,1,5.21,5.81,18.52,18.52,0,0,1,2.47,13.08,14.35,14.35,0,0,1-7.2,10.2,15.08,15.08,0,0,1-9.93,2,18.33,18.33,0,0,0,4.26,1.92,15.14,15.14,0,0,0,12.59-1.46,14.35,14.35,0,0,0,7.2-10.2,18.52,18.52,0,0,0-2.47-13.08Q384.08,321,378,319.42Z"/><path class="cls-7" d="M422.42,180.05a5.12,5.12,0,0,0-3.89-5,7,7,0,0,0,.6-2.83,7,7,0,0,0-6.95-7,6.76,6.76,0,0,0-1.87.26,5.13,5.13,0,0,0-9.53-2,6.94,6.94,0,0,0-11,4.62,4.17,4.17,0,1,0,3.72,7.19,6.85,6.85,0,0,0,3.15.76,8.26,8.26,0,0,0,1-.07s0,.05,0,.07a5.13,5.13,0,0,0,8.07,4.2,5.06,5.06,0,0,0-.52,2.24,5.12,5.12,0,0,0,5.12,5.12,5.13,5.13,0,1,0,9.22-3.06A5.11,5.11,0,0,0,422.42,180.05Z"/><g class="cls-22"><path class="cls-7" d="M402.8,181.27h.13c.05-.12.09-.23.14-.34a4.8,4.8,0,0,1-.54.32Z"/><path class="cls-7" d="M422.42,180.05a5.12,5.12,0,0,0-3.89-5,7,7,0,0,0,.6-2.83,7,7,0,0,0-6.95-7,6.76,6.76,0,0,0-1.87.26,5.13,5.13,0,0,0-5.09-4.54,5,5,0,0,0-2.4.61,5.11,5.11,0,0,1,4.82,4.51,7.16,7.16,0,0,1,1.87-.26,7,7,0,0,1,7,7,6.84,6.84,0,0,1-.61,2.83,5.12,5.12,0,0,1,1,9.56,5.1,5.1,0,0,1-1.72,7.58l.28,0a5.11,5.11,0,0,0,4.1-8.18A5.11,5.11,0,0,0,422.42,180.05Z"/><path class="cls-7" d="M390.86,176a3.84,3.84,0,0,1-.56.41,3.91,3.91,0,0,0,.48.05,3.84,3.84,0,0,0,.91-.11A8.58,8.58,0,0,1,390.86,176Z"/></g><path class="cls-9" d="M379.92,250.13a12.72,12.72,0,0,0-5.73-2.07c-3.86-.56,2,3.39,2,3.39s-4.14-.75-5.64,2.82,3,7,9.4,4.71,1.13-3.66,13.55-5.12,21.26-5.23,23.61-9,4.05-10.16,4.05-10.16l-8.28-3.57s-3.39,5.64-3.76,10.54c0,0-17.5,5.64-22,7.33S379.92,250.13,379.92,250.13Z"/><g class="cls-12"><path class="cls-9" d="M374.11,249.89a4.87,4.87,0,0,1,.7.06s-1-.69-1.91-1.45A4.26,4.26,0,0,0,374.11,249.89Z"/><path class="cls-9" d="M419.55,234a42.84,42.84,0,0,1-3.81,9.34c-2.36,3.77-11.2,7.53-23.62,9s-7.15,2.86-13.54,5.12c-3.42,1.2-6.28.79-8-.39,1.1,2.2,4.73,3.51,9.34,1.89,6.4-2.26,1.13-3.66,13.55-5.12s21.26-5.23,23.61-9,4.05-10.16,4.05-10.16Z"/></g><path class="cls-5" d="M417.37,217.77s-3.67,11-7.34,14.68c0,0,10.16.37,11.47,7l2.64-5.27"/><path class="cls-21" d="M417.37,217.77c-.34,1.34-.77,2.65-1.21,4s-1,2.59-1.48,3.87a34.14,34.14,0,0,1-1.81,3.76,16,16,0,0,1-2.45,3.48l-.37-1a20.2,20.2,0,0,1,3.66.55,15.33,15.33,0,0,1,3.49,1.25,9.89,9.89,0,0,1,3,2.26,7.51,7.51,0,0,1,1.61,3.39l-.6-.08c.46-.86.95-1.72,1.44-2.57s1-1.71,1.48-2.55c-.37.91-.76,1.82-1.15,2.72s-.78,1.8-1.2,2.69l-.37.79-.23-.87a6.72,6.72,0,0,0-1.64-2.92,9.74,9.74,0,0,0-2.81-1.92,16.13,16.13,0,0,0-3.29-1.11A22.7,22.7,0,0,0,410,233l-1.23-.08.86-.86a17.8,17.8,0,0,0,2.35-3.21c.69-1.16,1.34-2.36,2-3.58C415.16,222.82,416.28,220.3,417.37,217.77Z"/><ellipse class="cls-4" cx="265.69" cy="382.15" rx="37.79" ry="6.52"/><path class="cls-7" d="M284.48,365v2.94s9.86,6.73,9.14,10.93-8.3,3.57-12.08,0a17.82,17.82,0,0,1-4.83-7.78l1.05-6.09Z"/><path class="cls-23" d="M281.54,377.12A18.34,18.34,0,0,1,276.9,370l-.19,1.1a17.82,17.82,0,0,0,4.83,7.78c3.78,3.57,11.35,4.2,12.08,0a3.34,3.34,0,0,0-.1-1.39C292.43,381.27,285.21,380.58,281.54,377.12Z"/><path class="cls-7" d="M251,367l-.79,2.51s-9.86,6.73-9.14,10.93,8.3,3.57,12.08,0a17.82,17.82,0,0,0,4.83-7.77l-1-6.1Z"/><path class="cls-23" d="M253,378.72a18.21,18.21,0,0,0,4.65-7.16l.19,1.11a17.79,17.79,0,0,1-4.84,7.77c-3.78,3.57-11.34,4.2-12.07,0a3.13,3.13,0,0,1,.1-1.38C242.13,382.87,249.35,382.19,253,378.72Z"/><path class="cls-18" d="M243.63,267.58s-.16,81.85,7.14,100h6.32s6.91-62,7.51-76c0,0,9.78,71.47,12.88,74.83h7.06s2.76-77.59,0-100.1Z"/><g class="cls-8"><path class="cls-18" d="M263.17,281.05c-.59,14-10.39,86.55-10.39,86.55h4.31s6.29-59,7.51-76C264.6,284.63,263.17,281.05,263.17,281.05Z"/><path class="cls-18" d="M284.54,266.32l-4.3.13c2.74,22.56,0,100,0,100h4.31S287.3,288.83,284.54,266.32Z"/></g><path class="cls-11" d="M336.53,140.37l-14.79-8L330,113.69a12.71,12.71,0,0,0,2.58,2.09,23.66,23.66,0,0,0,3.79,2.16,11.91,11.91,0,0,0,7.56.89,6.88,6.88,0,0,0,5.14-4.11,8,8,0,0,0,.27-6.15,8.4,8.4,0,0,0-4.89-4.68,7.88,7.88,0,0,0-6.65-.27,12.47,12.47,0,0,0-5,4.28l-9.56-9.83a21.4,21.4,0,0,1,8-8.27,25.25,25.25,0,0,1,11.46-3.49,25.66,25.66,0,0,1,12.14,2.16,23.37,23.37,0,0,1,10.48,8.77,26.29,26.29,0,0,1,4.2,12.79,28,28,0,0,1-2.29,13.21,21.09,21.09,0,0,1-8.47,10,23.14,23.14,0,0,1-11.1,3.42,19.75,19.75,0,0,1-9.07-1.44Z"/><g class="cls-12"><path class="cls-11" d="M337.76,103.62a7.88,7.88,0,0,1,6.65.27,9.86,9.86,0,0,1,3.61,2.53,7.6,7.6,0,0,0-.33-1.22,8.35,8.35,0,0,0-4.88-4.68,7.9,7.9,0,0,0-6.66-.27,12.51,12.51,0,0,0-5,4.28L323.79,97c-.21.35-.43.7-.63,1.07l9.56,9.83A12.47,12.47,0,0,1,337.76,103.62Z"/><path class="cls-11" d="M369.47,110a26.23,26.23,0,0,0-3.38-11.42,26.7,26.7,0,0,1,1.78,8,28,28,0,0,1-2.3,13.2,20.94,20.94,0,0,1-8.47,10A23.12,23.12,0,0,1,346,133.34a19.72,19.72,0,0,1-9.07-1.44l-2,5.1-12.29-6.61-.9,2,14.79,8,2-5.1a19.75,19.75,0,0,0,9.07,1.44,23.14,23.14,0,0,0,11.1-3.42,21.09,21.09,0,0,0,8.47-10A28,28,0,0,0,369.47,110Z"/></g><path class="cls-11" d="M312.66,154.66a11.27,11.27,0,0,1,.34-8.48,10.44,10.44,0,0,1,6.23-5.84,10.94,10.94,0,0,1,8.43.2A9.79,9.79,0,0,1,333,146a10.39,10.39,0,0,1-.42,8.28,12.16,12.16,0,0,1-6,6.39,9.44,9.44,0,0,1-8.22.11A10,10,0,0,1,312.66,154.66Z"/><path class="cls-13" d="M333,146a12.14,12.14,0,0,0-.69-1.4,11.69,11.69,0,0,1-1.08,5,12.21,12.21,0,0,1-6,6.38,9.46,9.46,0,0,1-8.23.12,9.92,9.92,0,0,1-4.93-4.51,12.07,12.07,0,0,0,.63,3,10,10,0,0,0,5.66,6.15,9.44,9.44,0,0,0,8.22-.11,12.16,12.16,0,0,0,6-6.39A10.39,10.39,0,0,0,333,146Z"/><path class="cls-9" d="M273.05,206.3s17-9.4,27.4-14.61c0,0,13.15-20.55,14.52-22.47s.55-4.38,4.11-6.84,5.76-5.76,7.4-7.68,0,4.94,0,4.94,7.95-7.4,8.49-4.11-10.68,8.49-12.6,15.61-6.3,21.1-15.07,26.85-26.94,18.18-26.94,18.18S268.12,222.29,273.05,206.3Z"/><g class="cls-12"><path class="cls-9" d="M335,155.53a.88.88,0,0,0-1-.84c-.41,3.3-10.76,8.36-12.6,15.17-1.92,7.13-6.3,21.1-15.07,26.86s-26.94,18.17-26.94,18.17-4.55,2.27-7,.42c1.81,3.94,8,.86,8,.86S298.53,203.75,307.3,198s13.15-19.72,15.07-26.85S335.52,158.81,335,155.53Z"/><path class="cls-9" d="M325.48,158.36s.62-.58,1.53-1.34c.28-1.7.4-3.4-.53-2.32l-.38.47C325.89,156.64,325.48,158.36,325.48,158.36Z"/></g><path class="cls-7" d="M240.18,213.62s16.07-3.66,32.87-7.32c0,0,.73,7.31,7.31,9.87,0,0,2.58,25.25,4.07,31.75a125.5,125.5,0,0,1,2.92,24.82l-45,3.79s-2.19-33.69-6.21-44.65C236.16,231.88,242,222,240.18,213.62Z"/><path class="cls-24" d="M287.35,272.74a125.5,125.5,0,0,0-2.92-24.82c-1.49-6.5-4.07-31.75-4.07-31.75-6.58-2.56-7.31-9.87-7.31-9.87l-3.19.7c2,8.66,5.18,36.33-28.38,58.48.58,6.4.89,11,.89,11Z"/><path class="cls-9" d="M240.18,213.62s-8-1.11-11.79,9,2.89,31.73,4.39,33.7c3.38,4.44,33.15-21.38,33.15-21.38s9.32-2.18,10.14-6.84-4.93-9.31-9-4.93c0,0-1.37-5.21-2.47-3.56s.27,5.75-.55,7.12-10.77,6.13-23.74,17.63A66.36,66.36,0,0,0,238.08,232S245.38,226.23,240.18,213.62Z"/><g class="cls-12"><path class="cls-9" d="M264.2,220.65a12,12,0,0,0,0,2.75A10.4,10.4,0,0,0,264.2,220.65Z"/><path class="cls-9" d="M265.93,232.09s-29.77,25.82-33.15,21.38c-1.12-1.47-5.15-13.89-5.52-24.31-.42,10.86,4.29,25.58,5.52,27.19,3.38,4.44,33.15-21.38,33.15-21.38s9.32-2.18,10.14-6.84a5.53,5.53,0,0,0-.14-2.4C274.58,230.06,265.93,232.09,265.93,232.09Z"/></g><path class="cls-9" d="M249.45,201.67s2.65,5.55,2,9.64,4.11,6.83,9.58,4.79,4.11-8.78,4.11-8.78a3.32,3.32,0,0,1-2.42-2.37S273.3,204,272,197.1s-2.28-7.14-2.28-7.14l3-1s-6-9.12-8.33-12.91c-6.61-10.83-22.3-10.82-26.87,3.52C231.83,197.37,249.45,201.67,249.45,201.67Z"/><path class="cls-10" d="M269.68,190l3-1s-6-9.12-8.33-12.91a15.81,15.81,0,0,0-10.5-7.48,16.18,16.18,0,0,1,7.66,6.64c2.31,3.79,8.32,12.91,8.32,12.91l-3,1s.94.22,2.28,7.14-9.22,7.85-9.22,7.85a3.32,3.32,0,0,0,2.42,2.37s1.37,6.74-4.1,8.78a10,10,0,0,1-4.39.64,8.63,8.63,0,0,0,7.23.2c5.47-2,4.11-8.78,4.11-8.78a3.32,3.32,0,0,1-2.42-2.37S273.3,204,272,197.1,269.68,190,269.68,190Z"/><path class="cls-18" d="M249.45,201.67s3.6-2.31,0-10.31,3.4-5.52,3.4-5.52l-1.16-6.78s10.24-2.33,11.57-5.64,1.92-5.07,1.92-5.07-1.83,2-6.08.25-22.5-4.58-24,18C235.1,186.57,234.79,200.2,249.45,201.67Z"/><g class="cls-8"><path class="cls-18" d="M259.1,170c2.78,1.13,4.52.68,5.39.22.47-1.25.69-1.91.69-1.91s-1.83,2-6.08.25-22.5-4.58-24,18c0,0,0,.36,0,1C236.86,165.51,254.88,168.31,259.1,170Z"/></g></g></g></svg>