<svg height="408pt" viewBox="0 -32 408 408" width="408pt" xmlns="http://www.w3.org/2000/svg"><path d="m8 208h224c4.417969 0 8-3.582031 8-8v-192c0-4.417969-3.582031-8-8-8h-224c-4.417969 0-8 3.582031-8 8v192c0 4.417969 3.582031 8 8 8zm96-192h32v32h-32zm-88 0h72v40c0 4.417969 3.582031 8 8 8h48c4.417969 0 8-3.582031 8-8v-40h72v176h-208zm0 0"/><path d="m72 112h-32c-4.417969 0-8 3.582031-8 8s3.582031 8 8 8h32c4.417969 0 8-3.582031 8-8s-3.582031-8-8-8zm0 0"/><path d="m56 144h-16c-4.417969 0-8 3.582031-8 8s3.582031 8 8 8h16c4.417969 0 8-3.582031 8-8s-3.582031-8-8-8zm0 0"/><path d="m3.414062 286.550781 80 56c2.445313 1.710938 5.636719 1.917969 8.28125.539063 2.644532-1.375 4.304688-4.109375 4.304688-7.089844v-24h272c22.082031-.027344 39.972656-17.917969 40-40v-160c-.027344-22.082031-17.917969-39.972656-40-40h-40c-4.417969 0-8 3.582031-8 8v48c0 4.417969 3.582031 8 8 8h16v112h-248v-16c0-2.882812-1.550781-5.542969-4.0625-6.960938-2.507812-1.421874-5.585938-1.378906-8.058594.105469l-80 48c-2.320312 1.394531-3.777344 3.871094-3.8710935 6.578125-.09375 2.707032 1.1914065 5.277344 3.4062495 6.828125zm76.585938-40.414062v9.863281c0 4.417969 3.582031 8 8 8h264c4.417969 0 8-3.582031 8-8v-128c0-4.417969-3.582031-8-8-8h-16v-32h32c13.253906 0 24 10.746094 24 24v160c0 13.253906-10.746094 24-24 24h-280c-4.417969 0-8 3.582031-8 8v16.632812l-57.3125-40.121093zm0 0"/><path d="m288 72h16v64h-16zm0 0"/><path d="m256 72h16v64h-16zm0 0"/></svg>