<?xml version="1.0" encoding="utf-8"?>
<!-- Generator: Adobe Illustrator 16.0.0, SVG Export Plug-In . SVG Version: 6.00 Build 0)  -->
<!DOCTYPE svg PUBLIC "-//W3C//DTD SVG 1.1//EN" "http://www.w3.org/Graphics/SVG/1.1/DTD/svg11.dtd">
<svg version="1.1" id="Layer_1" xmlns="http://www.w3.org/2000/svg" xmlns:xlink="http://www.w3.org/1999/xlink" x="0px" y="0px"
	 width="500px" height="500px" viewBox="0 0 500 500" enable-background="new 0 0 500 500" xml:space="preserve">
<rect fill="none" width="499.999" height="500"/>
<g>
	<g>
		<path fill="#DDDCDC" d="M370.138,242.275c-0.732-0.547-74.418-54.531-112.968-234.698c-1.016-4.805-5.508-8.057-10.347-7.52
			c-4.873,0.518-8.56,4.609-8.56,9.521v191.739c-1.899-0.303-3.854-0.439-5.846-0.439c-1.982,0-3.936,0.137-5.85,0.439V9.58
			c0-4.912-3.687-9.004-8.545-9.521c-4.863-0.518-9.326,2.715-10.347,7.52c-20.059,93.721-49.751,152.588-71.138,185.459
			c-23.096,35.508-41.68,49.131-41.846,49.238c-2.466,1.729-3.955,4.55-4.028,7.568c-0.068,3.008,1.294,5.879,3.677,7.754
			c0.649,0.518,62.163,49.268,80.254,116.455h-11.255c-5.278,0-9.565,4.287-9.565,9.57v69.561l-8.149,35.098
			c-0.664,2.852,0.015,5.84,1.831,8.115c1.802,2.275,4.556,3.604,7.485,3.604h154.962c2.915,0,5.669-1.328,7.485-3.604
			c1.821-2.275,2.485-5.264,1.836-8.115l-8.169-35.098v-69.561c0-5.283-4.268-9.57-9.546-9.57h-11.26
			c18.081-67.061,79.604-115.938,80.253-116.455c2.393-1.875,3.745-4.746,3.662-7.754
			C374.098,246.826,372.608,244.004,370.138,242.275z M232.418,219.971c10.538,0,19.112,8.604,19.112,19.131
			c0,10.517-8.574,19.102-19.112,19.102c-10.527,0-19.097-8.584-19.097-19.102C213.321,228.545,221.891,219.971,232.418,219.971z
			 M166.974,480.879l3.96-17.031h122.979l3.965,17.031H166.974z M291.936,393.174v51.572H172.901v-51.572H291.936z M270.534,374.053
			h-76.231c-14.321-60.41-59.883-106.553-79.346-123.995c18.354-17.285,60.21-65.244,92.505-166.67v126.797
			c-8.115,7.021-13.267,17.354-13.267,28.916c0,21.074,17.144,38.223,38.223,38.223c21.075,0,38.219-17.148,38.219-38.223
			c0-11.563-5.151-21.895-13.247-28.916V83.388c32.28,101.426,74.136,149.385,92.484,166.67
			C330.427,267.5,284.865,313.643,270.534,374.053z"/>
	</g>
	<g>
		<g>
			<path fill="#065092" d="M405.305,242.275c-0.732-0.547-74.419-54.531-112.969-234.698c-1.016-4.805-5.508-8.057-10.347-7.52
				c-4.873,0.518-8.56,4.609-8.56,9.521v191.739c-1.899-0.303-3.853-0.439-5.845-0.439c-1.982,0-3.936,0.137-5.85,0.439V9.58
				c0-4.912-3.687-9.004-8.545-9.521c-4.863-0.518-9.326,2.715-10.347,7.52c-20.06,93.721-49.752,152.588-71.139,185.459
				c-23.096,35.508-41.68,49.131-41.846,49.238c-2.466,1.729-3.955,4.55-4.028,7.568c-0.068,3.008,1.294,5.879,3.677,7.754
				c0.649,0.518,62.163,49.268,80.254,116.455h-11.255c-5.278,0-9.565,4.287-9.565,9.57v69.561l-8.149,35.098
				c-0.664,2.852,0.015,5.84,1.831,8.115c1.802,2.275,4.556,3.604,7.485,3.604h154.961c2.915,0,5.669-1.328,7.485-3.604
				c1.821-2.275,2.485-5.264,1.836-8.115l-8.169-35.098v-69.561c0-5.283-4.268-9.57-9.545-9.57h-11.26
				c18.08-67.061,79.604-115.938,80.253-116.455c2.393-1.875,3.746-4.746,3.662-7.754
				C409.264,246.826,407.775,244.004,405.305,242.275z M267.585,219.971c10.537,0,19.111,8.604,19.111,19.131
				c0,10.517-8.574,19.102-19.111,19.102c-10.527,0-19.097-8.584-19.097-19.102C248.488,228.545,257.058,219.971,267.585,219.971z
				 M202.14,480.879l3.96-17.031h122.979l3.965,17.031H202.14z M327.102,393.174v51.572H208.067v-51.572H327.102z M305.7,374.053
				h-76.231c-14.321-60.41-59.883-106.553-79.346-123.995c18.354-17.285,60.21-65.244,92.506-166.67v126.797
				c-8.115,7.021-13.268,17.354-13.268,28.916c0,21.074,17.145,38.223,38.224,38.223c21.074,0,38.218-17.148,38.218-38.223
				c0-11.563-5.151-21.895-13.247-28.916V83.388c32.28,101.426,74.135,149.385,92.485,166.67
				C365.592,267.5,320.031,313.643,305.7,374.053z"/>
		</g>
	</g>
</g>
</svg>
