<?xml version="1.0" encoding="utf-8"?>
<!-- Generator: Adobe Illustrator 16.0.0, SVG Export Plug-In . SVG Version: 6.00 Build 0)  -->
<!DOCTYPE svg PUBLIC "-//W3C//DTD SVG 1.1//EN" "http://www.w3.org/Graphics/SVG/1.1/DTD/svg11.dtd">
<svg version="1.1" id="Layer_1" xmlns="http://www.w3.org/2000/svg" xmlns:xlink="http://www.w3.org/1999/xlink" x="0px" y="0px"
	 width="500px" height="500px" viewBox="0 0 500 500" enable-background="new 0 0 500 500" xml:space="preserve">
<rect x="0.001" fill="none" width="499.999" height="500"/>
<g>
	<g>
		<g>
			<g>
				<g>
					<path fill="#DDDCDC" d="M408.384,192.025H123.075c0,0-40.756-1.533-40.756,25.78c0,27.314,0,261.726,0,261.726
						S94.248,500,117.127,500c22.852,0,291.256,0,291.256,0V192.025z"/>
					<path fill="#DDDCDC" d="M123.075,192.025c-42.743,0-40.756,25.78-40.756,25.78s0,235.925,0,261.726
						c0,0-0.991,20.469,34.809,20.469h5.947V192.025z"/>
					<path fill="#DDDCDC" d="M88.281,462.08v17.188c0,0,4.336,16.699,34.794,16.699c30.498,0,285.309,0,285.309,0v-43.77H88.281
						V462.08z"/>
				</g>
				<g>
					<path fill="#DDDCDC" d="M366.651,125.736H81.342c0,0-40.747-1.523-40.747,25.801c0,27.305,0,261.715,0,261.715
						S52.5,433.721,75.38,433.721c22.866,0,291.271,0,291.271,0V125.736z"/>
					<path fill="#DDDCDC" d="M81.342,125.736c-42.753,0-40.747,25.801-40.747,25.801s0,235.915,0,261.715
						c0,0-1.016,20.469,34.785,20.469h5.962V125.736z"/>
					<path fill="#DDDCDC" d="M46.543,395.801v17.188c0,0,4.307,16.68,34.799,16.68c30.487,0,285.309,0,285.309,0v-43.74H46.543
						V395.801z"/>
				</g>
				<g>
					<path fill="#DDDCDC" d="M419.331,59.761H134.002c0,0-40.746-1.514-40.746,25.801c0,27.305,0,261.706,0,261.706
						s11.923,20.477,34.799,20.477c22.852,0,291.276,0,291.276,0V59.761z"/>
					<path fill="#DDDCDC" d="M134.002,59.761c-42.738,0-40.746,25.801-40.746,25.801s0,235.915,0,261.706
						c0,0-1.001,20.477,34.799,20.477h5.947V59.761z"/>
					<path fill="#DDDCDC" d="M99.223,329.816v17.207c0,0,4.306,16.688,34.779,16.688c30.488,0,285.329,0,285.329,0v-43.738H99.223
						V329.816z"/>
					<g>
						<g>
							<g>
								<polygon fill="#DDDCDC" points="321.901,335.148 355.681,335.148 355.681,360.156 321.901,379.131 								"/>
							</g>
							<g>
								<polygon fill="#DDDCDC" points="389.513,335.148 355.681,335.148 355.681,360.156 389.513,379.131 								"/>
							</g>
						</g>
						<g>
							<g>
								<polygon fill="#DDDCDC" points="321.901,335.148 355.681,335.148 355.681,360.156 321.901,379.131 								"/>
							</g>
							<g>
								<polygon fill="#DDDCDC" points="389.513,335.148 355.681,335.148 355.681,360.156 389.513,379.131 								"/>
							</g>
						</g>
					</g>
				</g>
				<g>
					<path fill="#DDDCDC" d="M355.681,0.015h-285.3c0,0-40.757-1.514-40.757,25.81c0,27.285,0,261.696,0,261.696
						s11.924,20.469,34.8,20.469c22.861,0,291.257,0,291.257,0V0.015z"/>
					<path fill="#DDDCDC" d="M70.381,0.015c-42.749,0-40.757,25.81-40.757,25.81s0,235.896,0,261.696c0,0-0.991,20.469,34.8,20.469
						h5.957V0.015z"/>
					<path fill="#DDDCDC" d="M35.581,270.07v17.207c0,0,4.341,16.68,34.8,16.68c30.492,0,285.3,0,285.3,0v-43.76h-320.1V270.07z"/>
				</g>
			</g>
			<path fill="#DDDCDC" d="M288.079,79.536H123.431c-3.545,0-6.475-2.93-6.475-6.484l0,0c0-3.574,2.93-6.504,6.475-6.504h164.648
				c3.564,0,6.479,2.93,6.479,6.504l0,0C294.558,76.606,291.644,79.536,288.079,79.536z"/>
		</g>
	</g>
	<g>
		<g>
			<g>
				<path fill="#B33F74" d="M459.444,192.025h-285.31c0,0-40.757-1.533-40.757,25.78c0,27.314,0,261.726,0,261.726
					S145.306,500,168.187,500c22.851,0,291.257,0,291.257,0V192.025z"/>
				<path fill="#9F2B65" d="M174.134,192.025c-42.744,0-40.757,25.78-40.757,25.78s0,235.925,0,261.726
					c0,0-0.991,20.469,34.81,20.469h5.947V192.025z"/>
				<path fill="#FFFFFF" d="M139.339,462.08v17.188c0,0,4.336,16.699,34.795,16.699c30.497,0,285.31,0,285.31,0v-43.77H139.339
					V462.08z"/>
			</g>
			<g>
				<path fill="#3DBFB8" d="M417.71,125.736H132.401c0,0-40.746-1.523-40.746,25.801c0,27.305,0,261.715,0,261.715
					s11.903,20.469,34.784,20.469c22.866,0,291.271,0,291.271,0V125.736z"/>
				<path fill="#15B9A9" d="M132.401,125.736c-42.753,0-40.746,25.801-40.746,25.801s0,235.915,0,261.715
					c0,0-1.016,20.469,34.784,20.469h5.962V125.736z"/>
				<path fill="#FFFFFF" d="M97.602,395.801v17.188c0,0,4.306,16.68,34.799,16.68c30.488,0,285.309,0,285.309,0v-43.74H97.602
					V395.801z"/>
			</g>
			<g>
				<path fill="#F8C92E" d="M470.392,59.761H185.061c0,0-40.746-1.514-40.746,25.801c0,27.305,0,261.706,0,261.706
					s11.924,20.477,34.8,20.477c22.851,0,291.277,0,291.277,0V59.761z"/>
				<path fill="#C89A2C" d="M185.061,59.761c-42.738,0-40.746,25.801-40.746,25.801s0,235.915,0,261.706
					c0,0-1.001,20.477,34.8,20.477h5.946V59.761z"/>
				<path fill="#FFFFFF" d="M150.282,329.816v17.207c0,0,4.307,16.688,34.779,16.688c30.488,0,285.331,0,285.331,0v-43.738h-320.11
					V329.816z"/>
				<g>
					<g>
						<polygon fill="#FFD97C" points="372.96,335.148 406.739,335.148 406.739,360.156 372.96,379.131 						"/>
						<polygon fill="#FCC95D" points="440.571,335.148 406.739,335.148 406.739,360.156 440.571,379.131 						"/>
					</g>
					<g>
						<polygon fill="#FFD97C" points="372.96,335.148 406.739,335.148 406.739,360.156 372.96,379.131 						"/>
						<polygon fill="#FCC95D" points="440.571,335.148 406.739,335.148 406.739,360.156 440.571,379.131 						"/>
					</g>
				</g>
			</g>
			<g>
				<path fill="#2A81BA" d="M406.739,0.015h-285.3c0,0-40.756-1.514-40.756,25.81c0,27.285,0,261.696,0,261.696
					s11.924,20.469,34.799,20.469c22.861,0,291.257,0,291.257,0V0.015z"/>
				<path fill="#1D73A5" d="M121.439,0.015c-42.748,0-40.756,25.81-40.756,25.81s0,235.896,0,261.696
					c0,0-0.991,20.469,34.799,20.469h5.957V0.015z"/>
				<path fill="#FFFFFF" d="M86.64,270.07v17.207c0,0,4.341,16.68,34.799,16.68c30.493,0,285.3,0,285.3,0v-43.76H86.64V270.07z"/>
			</g>
		</g>
		<path fill="#19668A" d="M339.138,79.536H174.491c-3.545,0-6.475-2.93-6.475-6.484l0,0c0-3.574,2.93-6.504,6.475-6.504h164.647
			c3.564,0,6.479,2.93,6.479,6.504l0,0C345.616,76.606,342.702,79.536,339.138,79.536z"/>
	</g>
</g>
</svg>
